# xmcd
#
# Track frame offsets:
#	150
#	2530
#	30991
#	62768
#	106786
#	118462
#	145285
#	185763
#	226557
#	250345
#	275363
#	312287
#
# Disc length: 4439 seconds
#
# Revision: 1
# Processed by: cddbd v1.5.2PL0 Copyright (c) Steve Scherf et al.
# Submitted via: audiograbber 1.83.01
#
DISCID=9c11550c
DTITLE=Grateful Dead - 79-11-29 Cleveland Public Hall, Cleveland OH
DYEAR=1900
DGENRE=
TTITLE0=Tuning
TTITLE1=Alabama Getaway
TTITLE2=Promised Land
TTITLE3=Candyman
TTITLE4=Mama Tried
TTITLE5=Mexicali Blues
TTITLE6=They Love Each Other
TTITLE7=New Minglewood Blues
TTITLE8=Easy To Love You
TTITLE9=Brown Eyed Women
TTITLE10=Looks Like Rain
TTITLE11=Don't Ease Me In
EXTD=
EXTT0=
EXTT1=
EXTT2=
EXTT3=
EXTT4=
EXTT5=
EXTT6=
EXTT7=
EXTT8=
EXTT9=
EXTT10=
EXTT11=
PLAYORDER=
